<?xml version="1.0" encoding="UTF-8" standalone="no"?>
<!-- Created with Inkscape (http://www.inkscape.org/) -->
<svg
   xmlns:dc="http://purl.org/dc/elements/1.1/"
   xmlns:cc="http://creativecommons.org/ns#"
   xmlns:rdf="http://www.w3.org/1999/02/22-rdf-syntax-ns#"
   xmlns:svg="http://www.w3.org/2000/svg"
   xmlns="http://www.w3.org/2000/svg"
   xmlns:sodipodi="http://sodipodi.sourceforge.net/DTD/sodipodi-0.dtd"
   xmlns:inkscape="http://www.inkscape.org/namespaces/inkscape"
   width="732.14288"
   height="721.66705"
   id="svg2"
   sodipodi:version="0.32"
   inkscape:version="0.46"
   version="1.0"
   sodipodi:docname="lemon.svg"
   inkscape:output_extension="org.inkscape.output.svg.inkscape"
   inkscape:export-filename="/home/ginger/art/dailyillustration/lemon.png"
   inkscape:export-xdpi="72"
   inkscape:export-ydpi="72">
  <defs
     id="defs4">
    <inkscape:perspective
       sodipodi:type="inkscape:persp3d"
       inkscape:vp_x="0 : 526.18109 : 1"
       inkscape:vp_y="0 : 1000 : 0"
       inkscape:vp_z="744.09448 : 526.18109 : 1"
       inkscape:persp3d-origin="372.04724 : 350.78739 : 1"
       id="perspective10" />
    <inkscape:perspective
       id="perspective2450"
       inkscape:persp3d-origin="372.04724 : 350.78739 : 1"
       inkscape:vp_z="744.09448 : 526.18109 : 1"
       inkscape:vp_y="0 : 1000 : 0"
       inkscape:vp_x="0 : 526.18109 : 1"
       sodipodi:type="inkscape:persp3d" />
  </defs>
  <sodipodi:namedview
     id="base"
     pagecolor="#ffffff"
     bordercolor="#666666"
     borderopacity="1.0"
     gridtolerance="10000"
     guidetolerance="10"
     objecttolerance="10"
     inkscape:pageopacity="0.0"
     inkscape:pageshadow="2"
     inkscape:zoom="0.49497475"
     inkscape:cx="259.7554"
     inkscape:cy="453.81193"
     inkscape:document-units="px"
     inkscape:current-layer="layer1"
     showgrid="false"
     inkscape:window-width="1280"
     inkscape:window-height="746"
     inkscape:window-x="0"
     inkscape:window-y="32" />
  <metadata
     id="metadata7">
    <rdf:RDF>
      <cc:Work
         rdf:about="">
        <dc:format>image/svg+xml</dc:format>
        <dc:type
           rdf:resource="http://purl.org/dc/dcmitype/StillImage" />
      </cc:Work>
    </rdf:RDF>
  </metadata>
  <g
     inkscape:label="Layer 1"
     inkscape:groupmode="layer"
     id="layer1"
     transform="translate(-6.428573,-1.5502426)">
    <path
       style="fill:#fad934;fill-opacity:1;fill-rule:evenodd;stroke:none;stroke-width:1px;stroke-linecap:butt;stroke-linejoin:miter;stroke-opacity:1"
       d="M 433.6089,6.2061546 L 456.88849,8.5341111 L 484.82399,16.681963 L 517.4154,24.829817 L 532.54712,32.977671 L 562.81057,53.929291 L 583.76221,70.224999 L 605.8778,86.520705 L 624.50148,106.30836 L 653.60096,136.57181 L 669.89667,156.35946 L 690.84828,184.29495 L 708.30798,218.05035 L 717.61979,243.6579 L 725.76765,265.77348 L 732.75154,292.54503 L 736.24346,318.15256 L 737.40746,343.7601 L 738.57144,374.02354 L 733.9155,427.5666 L 718.78379,483.43758 L 697.83216,516.02899 L 687.35634,540.47256 L 666.40471,567.24407 L 645.45311,589.35968 L 618.68158,620.78713 L 591.91007,645.23068 L 562.81057,672.0022 L 543.02294,687.13392 L 512.75949,704.59361 L 467.36428,718.56136 L 446.41267,718.56136 L 427.789,715.06943 L 418.47717,719.72534 L 401.01749,723.21728 L 364.93413,720.88932 L 341.65457,717.39738 L 316.04702,711.57749 L 288.11151,706.92157 L 268.32387,701.10167 L 243.8803,695.28178 L 219.43674,684.80597 L 199.64911,672.0022 L 178.69748,656.87045 L 164.72974,647.55864 L 149.59799,638.24681 L 134.46628,627.77099 L 114.67863,607.98335 L 99.546901,590.52366 L 87.907108,574.22795 L 73.939356,555.60429 L 57.643658,533.48869 L 47.167839,511.37308 L 28.544182,479.94564 L 16.904377,449.6822 L 9.9205188,413.59884 L 6.428573,378.67947 L 9.9205188,344.92406 L 14.576419,310.0047 L 19.232336,275.08532 L 23.888242,248.31381 L 33.200087,220.37831 L 43.675907,190.11485 L 57.643658,165.67128 L 79.759247,137.73581 L 98.382916,115.6202 L 121.66249,94.668559 L 142.61413,78.372852 L 165.8937,60.913175 L 188.00931,44.617467 L 206.63298,31.813701 L 232.24053,20.173907 L 259.01203,16.681963 L 289.27549,7.3701411 L 318.37496,5.0421693 L 339.32661,1.5502426 L 356.78628,3.8781991 L 377.7379,7.3701411 L 392.86965,6.2061546 L 411.4933,7.3701411 L 427.789,9.6980964 L 433.6089,6.2061546 z"
       id="path2456" />
    <path
       style="fill:#d9c67e;fill-opacity:1;fill-rule:evenodd;stroke:none;stroke-width:1px;stroke-linecap:butt;stroke-linejoin:miter;stroke-opacity:1"
       d="M 215.94482,45.781437 L 238.06042,36.469613 L 259.01203,28.32176 L 282.29163,25.993805 L 296.25936,21.337876 L 313.71907,24.829817 L 335.83467,20.173907 L 356.78628,16.681963 L 373.08199,19.009921 L 390.54169,23.665848 L 409.16534,27.157775 L 428.953,28.32176 L 448.74063,28.32176 L 469.69227,32.977671 L 483.65999,34.141658 L 496.46378,36.469613 L 517.4154,41.125525 L 551.17079,64.405116 L 562.81057,74.880926 L 577.94232,88.848678 L 590.74608,94.668559 L 605.8778,106.30836 L 619.84555,116.78416 L 632.64933,128.42395 L 639.63321,137.73581 L 658.25686,165.67128 L 672.22462,186.62293 L 683.86442,206.41056 L 690.84828,222.70627 L 700.16012,247.14982 L 704.81604,264.60952 L 709.47195,279.74124 L 711.7999,298.3649 L 715.29184,315.8246 L 719.94775,339.10416 L 718.78379,360.05581 L 715.29184,385.66333 L 715.29184,394.97518 L 714.12787,413.59884 L 705.98002,445.02627 L 698.99613,472.96177 L 694.34023,484.60157 L 687.35634,491.58544 L 676.88053,505.55319 L 665.24075,525.34084 L 647.78107,552.11235 L 622.17351,575.39193 L 603.54985,595.17957 L 584.92619,617.29518 L 574.45038,628.93497 L 545.3509,645.23068 L 518.57938,661.52639 L 503.44765,672.0022 L 484.82399,682.47802 L 460.38042,688.29791 L 437.10086,684.80597 L 399.8535,688.29791 L 370.75403,695.28178 L 320.70292,690.62586 L 276.47173,683.642 L 257.84805,673.16616 L 225.25663,653.37853 L 207.79696,640.57476 L 176.36952,620.78713 L 148.43403,599.83549 L 136.79424,583.53978 L 128.64638,576.55591 L 123.99046,567.24407 L 107.69475,560.2602 L 97.218942,546.29245 L 84.415164,525.34084 L 61.13559,492.74942 L 47.167839,456.66606 L 40.183952,422.91066 L 33.200087,381.00743 L 35.528046,361.21977 L 36.692031,328.62835 L 42.511933,305.34878 L 51.823744,275.08532 L 55.315699,245.98585 L 58.807643,227.36219 L 76.267315,191.27883 L 90.235066,166.83527 L 111.18669,140.06376 L 133.30228,115.6202 L 153.08995,100.48845 L 174.04156,83.02878 L 198.48512,65.569086 L 215.94482,45.781437 z"
       id="path2458" />
    <path
       style="fill:#ffe175;fill-opacity:1;fill-rule:evenodd;stroke:none;stroke-width:1px;stroke-linecap:butt;stroke-linejoin:miter;stroke-opacity:1"
       d="M 242.71632,80.700824 L 267.15989,69.061029 L 288.11151,63.24113 L 303.24325,63.24113 L 334.67067,67.897043 L 343.98252,67.897043 L 352.13036,73.71694 L 357.95027,83.02878 L 367.26209,99.324487 L 370.75403,110.96427 L 370.75403,144.71966 L 369.59005,178.47507 L 370.75403,219.21434 L 370.75403,249.47778 L 373.08199,273.92135 L 374.24598,289.05307 L 374.24598,299.52889 L 371.91802,303.02082 L 367.26209,308.84072 L 361.4422,314.66061 L 357.95027,313.49664 L 345.14649,305.34878 L 330.01478,290.21706 L 299.75131,263.44553 L 263.66795,237.83799 L 247.37224,228.52616 L 226.42063,216.88637 L 212.45287,206.41056 L 199.64911,199.42669 L 185.68136,191.27883 L 172.87759,186.62293 L 164.72974,179.63903 L 160.07381,170.32722 L 165.8937,157.52344 L 177.5335,143.55569 L 184.51737,135.40783 L 199.64911,122.60406 L 212.45287,109.8003 L 226.42063,100.48845 L 231.07653,93.504589 L 234.56849,91.176634 L 242.71632,80.700824 z"
       id="path2460" />
    <path
       style="fill:#ffe175;fill-opacity:1;fill-rule:evenodd;stroke:none;stroke-width:1px;stroke-linecap:butt;stroke-linejoin:miter;stroke-opacity:1"
       d="M 390.54169,69.061029 L 411.4933,67.897043 L 434.77288,70.224999 L 461.54441,76.044896 L 479.00409,83.02878 L 499.9557,88.848678 L 503.44765,98.160496 L 505.77561,103.9804 L 513.92346,100.48845 L 520.90733,98.160496 L 531.38315,106.30836 L 546.51488,120.2761 L 561.64661,130.75191 L 562.81057,143.55569 L 559.31865,155.19548 L 531.38315,180.80303 L 524.39928,192.44281 L 513.92346,201.75464 L 505.77561,208.73852 L 483.65999,239.00198 L 469.69227,252.96973 L 456.88849,263.44553 L 447.57665,272.75737 L 433.6089,283.23318 L 444.08471,259.95361 L 441.75675,245.98585 L 431.28096,234.34606 L 423.13311,228.52616 L 414.98525,226.1982 L 406.8374,223.87024 L 401.01749,228.52616 L 395.19759,237.83799 L 385.88575,247.14982 L 381.22984,259.95361 L 381.22984,259.95361 L 383.5578,239.00198 L 384.72178,220.37831 L 383.5578,173.81914 L 385.88575,137.73581 L 383.5578,112.12825 L 384.72178,94.668559 L 385.88575,77.208883 L 390.54169,69.061029 z"
       id="path2462" />
    <path
       style="fill:#ddab49;fill-opacity:1;fill-rule:evenodd;stroke:none;stroke-width:1px;stroke-linecap:butt;stroke-linejoin:miter;stroke-opacity:1"
       d="M 382.39383,257.62564 L 375.40995,271.59339 L 374.24598,283.23318 L 375.40995,297.20093 L 378.90188,306.51275 L 387.04974,323.97245 L 391.70565,327.46439 L 402.18146,319.31653 L 416.14921,307.67674 L 431.28096,294.87298 L 435.93686,282.06919 L 442.92074,257.62564 L 440.59278,245.98585 L 433.6089,239.00198 L 423.13311,228.52616 L 413.82125,226.1982 L 408.00136,223.87024 L 401.01749,229.69014 L 394.03361,241.32993 L 385.88575,247.14982 L 382.39383,257.62564 z"
       id="path2464" />
    <path
       style="fill:#ffe175;fill-opacity:1;fill-rule:evenodd;stroke:none;stroke-width:1px;stroke-linecap:butt;stroke-linejoin:miter;stroke-opacity:1"
       d="M 581.43424,150.53956 L 590.74608,154.03151 L 611.6977,172.65517 L 618.68158,185.45894 L 618.68158,192.44281 L 625.66546,200.59066 L 622.17351,208.73852 L 621.00954,216.88637 L 626.82944,218.05035 L 633.81332,218.05035 L 640.79719,220.37831 L 647.78107,228.52616 L 651.273,240.16595 L 651.273,244.82187 L 658.25686,254.1337 L 660.58482,264.60952 L 661.74882,276.24932 L 668.73267,290.21706 L 672.22462,300.69287 L 672.22462,315.8246 L 668.73267,328.62835 L 666.40471,336.7762 L 647.78107,343.7601 L 634.97729,340.26816 L 600.05792,340.26816 L 561.64661,341.43214 L 513.92346,336.7762 L 480.16807,337.9402 L 449.90461,340.26816 L 435.93686,339.10416 L 418.47717,335.61224 L 418.47717,330.95631 L 414.98525,318.15256 L 425.46104,306.51275 L 448.74063,284.39716 L 480.16807,258.78962 L 510.43154,229.69014 L 531.38315,201.75464 L 558.15467,177.31108 L 569.79446,170.32722 L 577.94232,165.67128 L 581.43424,150.53956 z"
       id="path2466" />
    <path
       style="fill:#ffe175;fill-opacity:1;fill-rule:evenodd;stroke:none;stroke-width:1px;stroke-linecap:butt;stroke-linejoin:miter;stroke-opacity:1"
       d="M 416.14921,351.90795 L 456.88849,348.41602 L 487.15194,350.74397 L 525.56325,347.25202 L 558.15467,353.07191 L 590.74608,348.41602 L 624.50148,348.41602 L 648.94504,348.41602 L 667.56871,358.89182 L 671.06063,379.84344 L 673.38861,391.48324 L 674.55257,403.12303 L 671.06063,415.9268 L 658.25686,433.38649 L 654.76492,440.37035 L 654.76492,458.99402 L 653.60096,464.81391 L 646.61707,474.12576 L 640.79719,478.78166 L 634.97729,488.09349 L 633.81332,491.58544 L 624.50148,507.88114 L 612.86169,507.88114 L 605.8778,514.86503 L 591.91007,525.34084 L 586.09017,521.84889 L 573.28639,516.02899 L 543.02294,484.60157 L 512.75949,452.01015 L 482.49603,427.5666 L 453.39656,401.95904 L 433.6089,384.49936 L 416.14921,365.87569 L 410.32932,358.89182 L 416.14921,351.90795 z"
       id="path2468" />
    <path
       style="fill:#ffe175;fill-opacity:1;fill-rule:evenodd;stroke:none;stroke-width:1px;stroke-linecap:butt;stroke-linejoin:miter;stroke-opacity:1"
       d="M 399.8535,372.85957 L 406.8374,375.18753 L 426.62503,394.97518 L 459.21644,428.73056 L 484.82399,454.33811 L 502.28367,463.64994 L 513.92346,481.10962 L 543.02294,504.3892 L 563.97457,526.50481 L 570.95844,542.80052 L 575.61436,556.76827 L 570.95844,577.71989 L 558.15467,590.52366 L 541.85896,604.49142 L 527.89121,614.96722 L 513.92346,620.78713 L 490.64388,633.59089 L 473.18419,639.41078 L 458.05246,644.0667 L 442.92074,646.39466 L 418.47717,648.72261 L 402.18146,638.24681 L 409.16534,627.77099 L 406.8374,614.96722 L 398.68954,611.47528 L 387.04974,605.65539 L 382.39383,600.99947 L 384.72178,560.2602 L 385.88575,518.35695 L 385.88575,489.25748 L 385.88575,429.89455 L 388.21373,415.9268 L 388.21373,393.81119 L 391.70565,382.1714 L 399.8535,372.85957 z"
       id="path2470" />
    <path
       style="fill:#ffe175;fill-opacity:1;fill-rule:evenodd;stroke:none;stroke-width:1px;stroke-linecap:butt;stroke-linejoin:miter;stroke-opacity:1"
       d="M 355.62232,640.57476 L 366.09812,623.11507 L 367.26209,577.71989 L 371.91802,542.80052 L 371.91802,497.40533 L 373.08199,450.84616 L 376.57394,422.91066 L 376.57394,404.28699 L 376.57394,392.64722 L 374.24598,389.15528 L 369.59005,386.82732 L 367.26209,376.35152 L 359.11424,376.35152 L 342.81853,399.63109 L 317.211,426.4026 L 278.79969,458.99402 L 249.7002,488.09349 L 225.25663,503.22524 L 214.78082,516.02899 L 194.99317,533.48869 L 181.02544,540.47256 L 174.04156,549.7844 L 181.02544,560.2602 L 188.00931,570.73602 L 201.97707,584.70377 L 210.12492,594.01559 L 222.92868,597.50753 L 231.07653,596.34357 L 262.50398,583.53978 L 245.04428,600.99947 L 242.71632,609.14732 L 249.7002,619.62314 L 261.33999,625.44303 L 277.6357,634.75485 L 292.76744,641.73874 L 317.211,641.73874 L 345.14649,644.0667 L 355.62232,640.57476 z"
       id="path2472" />
    <path
       style="fill:#ffe175;fill-opacity:1;fill-rule:evenodd;stroke:none;stroke-width:1px;stroke-linecap:butt;stroke-linejoin:miter;stroke-opacity:1"
       d="M 151.92595,529.99674 L 170.54962,523.01288 L 184.51737,513.70103 L 196.15716,503.22524 L 210.12492,496.24135 L 228.74857,481.10962 L 245.04428,468.30586 L 278.79969,434.55045 L 292.76744,421.7467 L 320.70292,397.30314 L 349.80242,371.69558 L 354.45832,364.71172 L 354.45832,354.23591 L 350.96638,349.57999 L 339.32661,346.08806 L 296.25936,349.57999 L 275.30774,347.25202 L 265.99591,350.74397 L 259.01203,349.57999 L 248.53624,347.25202 L 238.06042,349.57999 L 213.61686,347.25202 L 196.15716,348.41602 L 171.7136,348.41602 L 151.92595,349.57999 L 128.64638,354.23591 L 111.18669,353.07191 L 90.235066,353.07191 L 86.743123,368.20366 L 85.579149,378.67947 L 85.579149,389.15528 L 84.415164,399.63109 L 90.235066,414.76281 L 92.563025,422.91066 L 92.563025,442.69831 L 106.53078,454.33811 L 107.69475,461.32198 L 108.85873,468.30586 L 111.18669,481.10962 L 118.17057,488.09349 L 121.66249,496.24135 L 133.30228,513.70103 L 143.7781,525.34084 L 151.92595,529.99674 z"
       id="path2474" />
    <path
       style="fill:#ffe175;fill-opacity:1;fill-rule:evenodd;stroke:none;stroke-width:1px;stroke-linecap:butt;stroke-linejoin:miter;stroke-opacity:1"
       d="M 135.63024,191.27883 L 157.74585,199.42669 L 193.82921,215.72239 L 221.76471,229.69014 L 255.52009,251.80575 L 283.4556,275.08532 L 311.39111,294.87298 L 325.35886,306.51275 L 342.81853,321.64449 L 345.14649,328.62835 L 324.19486,332.12031 L 290.43948,333.28428 L 246.20828,334.44827 L 226.42063,334.44827 L 207.79696,330.95631 L 189.17329,326.30041 L 167.05769,330.95631 L 146.10606,335.61224 L 126.31842,335.61224 L 108.85873,333.28428 L 92.563025,327.46439 L 89.071081,310.0047 L 90.235066,287.8891 L 93.726998,269.26543 L 96.054957,258.78962 L 101.87486,241.32993 L 113.51464,218.05035 L 118.17057,218.05035 L 125.15444,206.41056 L 129.81035,198.2627 L 135.63024,191.27883 z"
       id="path2476" />
    <path
       style="fill:#fffca3;fill-opacity:1;fill-rule:evenodd;stroke:none;stroke-width:1px;stroke-linecap:butt;stroke-linejoin:miter;stroke-opacity:1"
       d="M 231.07653,542.80052 L 253.19214,513.70103 L 285.78356,478.78166 L 291.60345,474.12576 L 285.78356,499.73328 L 264.83194,521.84889 L 253.19214,538.1446 L 236.89643,556.76827 L 228.74857,554.44031 L 231.07653,542.80052 z"
       id="path2478" />
    <path
       style="fill:#fffca3;fill-opacity:1;fill-rule:evenodd;stroke:none;stroke-width:1px;stroke-linecap:butt;stroke-linejoin:miter;stroke-opacity:1"
       d="M 305.5712,617.29518 L 314.88304,623.11507 L 319.53896,614.96722 L 316.04702,603.32743 L 319.53896,584.70377 L 320.70292,562.58816 L 318.37496,550.94837 L 312.55507,566.08011 L 305.5712,587.03173 L 300.91529,597.50753 L 305.5712,617.29518 z"
       id="path2480" />
    <path
       style="fill:#fffca3;fill-opacity:1;fill-rule:evenodd;stroke:none;stroke-width:1px;stroke-linecap:butt;stroke-linejoin:miter;stroke-opacity:1"
       d="M 240.38838,571.9 L 261.33999,552.11235 L 268.32387,541.63653 L 279.96366,520.68491 L 292.76744,507.88114 L 300.91529,495.07737 L 309.06315,483.43758 L 305.5712,497.40533 L 300.91529,505.55319 L 286.94754,527.66878 L 276.47173,549.7844 L 261.33999,570.73602 L 253.19214,574.22795 L 247.37224,575.39193 L 240.38838,571.9 z"
       id="path2482" />
    <path
       style="fill:#fffca3;fill-opacity:1;fill-rule:evenodd;stroke:none;stroke-width:1px;stroke-linecap:butt;stroke-linejoin:miter;stroke-opacity:1"
       d="M 369.59005,427.5666 L 364.93413,468.30586 L 359.11424,484.60157 L 355.62232,503.22524 L 353.29434,513.70103 L 356.78628,526.50481 L 361.4422,526.50481 L 366.09812,511.37308 L 367.26209,492.74942 L 371.91802,455.50208 L 369.59005,427.5666 z"
       id="path2484" />
    <path
       style="fill:none;fill-rule:evenodd;stroke:none;stroke-width:1px;stroke-linecap:butt;stroke-linejoin:miter;stroke-opacity:1"
       d="M 394.03361,554.44031 L 394.03361,554.44031 z"
       id="path2486" />
    <path
       style="fill:#fffca3;fill-opacity:1;fill-rule:evenodd;stroke:none;stroke-width:1px;stroke-linecap:butt;stroke-linejoin:miter;stroke-opacity:1"
       d="M 392.86965,556.76827 L 397.52555,562.58816 L 397.52555,571.9 L 395.19759,580.04786 L 388.21373,582.37582 L 385.88575,573.06398 L 392.86965,556.76827 z"
       id="path2488" />
    <path
       style="fill:#fffca3;fill-opacity:1;fill-rule:evenodd;stroke:none;stroke-width:1px;stroke-linecap:butt;stroke-linejoin:miter;stroke-opacity:1"
       d="M 405.6734,520.68491 L 405.6734,472.96177 L 405.6734,457.83006 L 410.32932,472.96177 L 412.65729,493.91339 L 414.98525,520.68491 L 410.32932,527.66878 L 405.6734,520.68491 z"
       id="path2490" />
    <path
       style="fill:#fffca3;fill-opacity:1;fill-rule:evenodd;stroke:none;stroke-width:1px;stroke-linecap:butt;stroke-linejoin:miter;stroke-opacity:1"
       d="M 433.6089,484.60157 L 447.57665,491.58544 L 461.54441,506.71717 L 466.20032,518.35695 L 479.00409,540.47256 L 482.49603,554.44031 L 472.02021,555.60429 L 461.54441,543.96449 L 458.05246,527.66878 L 444.08471,504.3892 L 433.6089,484.60157 z"
       id="path2492" />
    <path
       style="fill:#fffca3;fill-opacity:1;fill-rule:evenodd;stroke:none;stroke-width:1px;stroke-linecap:butt;stroke-linejoin:miter;stroke-opacity:1"
       d="M 487.15194,536.98062 L 499.9557,552.11235 L 511.5955,567.24407 L 516.25141,584.70377 L 512.75949,590.52366 L 506.93958,597.50753 L 512.75949,612.63928 L 502.28367,620.78713 L 497.62775,619.62314 L 501.11969,606.81937 L 498.79174,592.85162 L 494.13583,571.9 L 494.13583,557.93224 L 487.15194,536.98062 z"
       id="path2494" />
    <path
       style="fill:none;fill-rule:evenodd;stroke:none;stroke-width:1px;stroke-linecap:butt;stroke-linejoin:miter;stroke-opacity:1"
       d="M 420.80515,410.1069 L 456.88849,446.19024 L 469.69227,461.32198 L 489.4799,479.94564 L 491.80786,470.63382 L 474.34817,454.33811 L 460.38042,441.53435 L 446.41267,427.5666 L 420.80515,410.1069 z"
       id="path2496" />
    <path
       style="fill:#fffca3;fill-opacity:1;fill-rule:evenodd;stroke:none;stroke-width:1px;stroke-linecap:butt;stroke-linejoin:miter;stroke-opacity:1"
       d="M 526.72725,570.73602 L 526.72725,585.86774 L 525.56325,598.67152 L 531.38315,602.16345 L 538.36703,592.85162 L 538.36703,580.04786 L 536.03907,576.55591 L 526.72725,570.73602 z"
       id="path2498" />
    <path
       style="fill:#fffca3;fill-opacity:1;fill-rule:evenodd;stroke:none;stroke-width:1px;stroke-linecap:butt;stroke-linejoin:miter;stroke-opacity:1"
       d="M 461.54441,396.13915 L 503.44765,425.23864 L 526.72725,446.19024 L 548.84282,463.64994 L 555.82671,475.28973 L 572.12242,489.25748 L 577.94232,500.89728 L 579.10628,511.37308 L 573.28639,509.04513 L 565.13853,500.89728 L 538.36703,471.79778 L 522.07132,453.17412 L 503.44765,439.20637 L 489.4799,427.5666 L 466.20032,403.12303 L 461.54441,396.13915 z"
       id="path2500" />
    <path
       style="fill:#fffca3;fill-opacity:1;fill-rule:evenodd;stroke:none;stroke-width:1px;stroke-linecap:butt;stroke-linejoin:miter;stroke-opacity:1"
       d="M 474.34817,356.56386 L 499.9557,363.54773 L 518.57938,368.20366 L 551.17079,365.87569 L 569.79446,357.72783 L 540.69499,355.39987 L 527.89121,355.39987 L 509.26754,354.23591 L 485.98796,355.39987 L 474.34817,356.56386 z"
       id="path2502" />
    <path
       style="fill:#fffca3;fill-opacity:1;fill-rule:evenodd;stroke:none;stroke-width:1px;stroke-linecap:butt;stroke-linejoin:miter;stroke-opacity:1"
       d="M 480.16807,393.81119 L 506.93958,418.25474 L 516.25141,428.73056 L 520.90733,426.4026 L 512.75949,410.1069 L 497.62775,394.97518 L 480.16807,393.81119 z"
       id="path2504" />
    <path
       style="fill:#fffca3;fill-opacity:1;fill-rule:evenodd;stroke:none;stroke-width:1px;stroke-linecap:butt;stroke-linejoin:miter;stroke-opacity:1"
       d="M 533.71111,428.73056 L 558.15467,449.6822 L 572.12242,452.01015 L 562.81057,443.8623 L 554.66273,435.71445 L 533.71111,428.73056 z"
       id="path2506" />
    <path
       style="fill:#fffca3;fill-opacity:1;fill-rule:evenodd;stroke:none;stroke-width:1px;stroke-linecap:butt;stroke-linejoin:miter;stroke-opacity:1"
       d="M 541.85896,406.61495 L 568.63048,418.25474 L 593.07404,427.5666 L 612.86169,431.05852 L 607.04179,425.23864 L 591.91007,413.59884 L 595.40199,407.77895 L 604.71383,407.77895 L 622.17351,421.7467 L 624.50148,429.89455 L 623.3375,440.37035 L 629.1574,450.84616 L 639.63321,460.158 L 646.61707,456.66606 L 640.79719,445.02627 L 637.30525,439.20637 L 631.48536,425.23864 L 632.64933,405.45099 L 607.04179,392.64722 L 589.58209,391.48324 L 579.10628,391.48324 L 561.64661,391.48324 L 556.99068,394.97518 L 568.63048,401.95904 L 576.77833,407.77895 L 576.77833,414.76281 L 569.79446,412.43485 L 556.99068,404.28699 L 541.85896,406.61495 z"
       id="path2508" />
    <path
       style="fill:#fffca3;fill-opacity:1;fill-rule:evenodd;stroke:none;stroke-width:1px;stroke-linecap:butt;stroke-linejoin:miter;stroke-opacity:1"
       d="M 580.27028,370.53161 L 601.2219,370.53161 L 617.51761,368.20366 L 627.99341,370.53161 L 640.79719,375.18753 L 648.94504,391.48324 L 651.273,399.63109 L 657.0929,404.28699 L 661.74882,403.12303 L 669.89667,412.43485 L 662.91278,419.41874 L 657.0929,421.7467 L 652.43696,418.25474 L 650.109,406.61495 L 640.79719,394.97518 L 614.02566,383.33538 L 596.56598,377.51548 L 580.27028,370.53161 z"
       id="path2510" />
    <path
       style="fill:#fffca3;fill-opacity:1;fill-rule:evenodd;stroke:none;stroke-width:1px;stroke-linecap:butt;stroke-linejoin:miter;stroke-opacity:1"
       d="M 469.69227,327.46439 L 492.97184,325.13643 L 524.39928,327.46439 L 576.77833,333.28428 L 566.30253,325.13643 L 551.17079,321.64449 L 517.4154,318.15256 L 495.29979,318.15256 L 469.69227,327.46439 z"
       id="path2512" />
    <path
       style="fill:#fffca3;fill-opacity:1;fill-rule:evenodd;stroke:none;stroke-width:1px;stroke-linecap:butt;stroke-linejoin:miter;stroke-opacity:1"
       d="M 453.39656,289.05307 L 482.49603,269.26543 L 512.75949,243.6579 L 533.71111,222.70627 L 531.38315,213.39443 L 524.39928,214.55841 L 491.80786,244.82187 L 476.67613,259.95361 L 463.87236,273.92135 L 455.7245,283.23318 L 453.39656,289.05307 z"
       id="path2514" />
    <path
       style="fill:#fffca3;fill-opacity:1;fill-rule:evenodd;stroke:none;stroke-width:1px;stroke-linecap:butt;stroke-linejoin:miter;stroke-opacity:1"
       d="M 532.54712,307.67674 L 548.84282,310.0047 L 587.25414,323.97245 L 616.35362,333.28428 L 609.36975,326.30041 L 584.92619,312.33266 L 565.13853,306.51275 L 541.85896,305.34878 L 532.54712,307.67674 z"
       id="path2516" />
    <path
       style="fill:#fffca3;fill-opacity:1;fill-rule:evenodd;stroke:none;stroke-width:1px;stroke-linecap:butt;stroke-linejoin:miter;stroke-opacity:1"
       d="M 498.79174,277.41328 L 516.25141,272.75737 L 532.54712,265.77348 L 534.87508,258.78962 L 526.72725,256.46166 L 509.26754,264.60952 L 498.79174,277.41328 z"
       id="path2518" />
    <path
       style="fill:#fffca3;fill-opacity:1;fill-rule:evenodd;stroke:none;stroke-width:1px;stroke-linecap:butt;stroke-linejoin:miter;stroke-opacity:1"
       d="M 506.93958,291.38103 L 526.72725,283.23318 L 533.71111,282.06919 L 532.54712,272.75737 L 522.07132,273.92135 L 509.26754,279.74124 L 506.93958,291.38103 z"
       id="path2520" />
    <path
       style="fill:#fffca3;fill-opacity:1;fill-rule:evenodd;stroke:none;stroke-width:1px;stroke-linecap:butt;stroke-linejoin:miter;stroke-opacity:1"
       d="M 588.41813,299.52889 L 563.97457,289.05307 L 556.99068,280.90523 L 561.64661,277.41328 L 577.94232,282.06919 L 583.76221,290.21706 L 588.41813,299.52889 z"
       id="path2522" />
    <path
       style="fill:#fffca3;fill-opacity:1;fill-rule:evenodd;stroke:none;stroke-width:1px;stroke-linecap:butt;stroke-linejoin:miter;stroke-opacity:1"
       d="M 567.4665,270.42941 L 582.59823,265.77348 L 601.2219,257.62564 L 598.89394,248.31381 L 588.41813,248.31381 L 570.95844,256.46166 L 567.4665,270.42941 z"
       id="path2524" />
    <path
       style="fill:#fffca3;fill-opacity:1;fill-rule:evenodd;stroke:none;stroke-width:1px;stroke-linecap:butt;stroke-linejoin:miter;stroke-opacity:1"
       d="M 540.69499,239.00198 L 576.77833,223.87024 L 590.74608,219.21434 L 609.36975,219.21434 L 615.18965,213.39443 L 605.8778,209.90249 L 597.72995,212.23045 L 582.59823,215.72239 L 568.63048,211.06649 L 558.15467,216.88637 L 541.85896,229.69014 L 540.69499,239.00198 z"
       id="path2526" />
    <path
       style="fill:#fffca3;fill-opacity:1;fill-rule:evenodd;stroke:none;stroke-width:1px;stroke-linecap:butt;stroke-linejoin:miter;stroke-opacity:1"
       d="M 567.4665,200.59066 L 580.27028,197.09874 L 587.25414,193.60678 L 600.05792,183.13098 L 595.40199,174.98312 L 588.41813,170.32722 L 580.27028,173.81914 L 569.79446,180.80303 L 566.30253,188.95088 L 567.4665,200.59066 z"
       id="path2528" />
    <path
       style="fill:#fffca3;fill-opacity:1;fill-rule:evenodd;stroke:none;stroke-width:1px;stroke-linecap:butt;stroke-linejoin:miter;stroke-opacity:1"
       d="M 392.86965,225.03423 L 395.19759,209.90249 L 398.68954,194.77078 L 397.52555,169.16323 L 389.3777,170.32722 L 388.21373,181.96699 L 382.39383,206.41056 L 387.04974,221.54228 L 392.86965,225.03423 z"
       id="path2530" />
    <path
       style="fill:#fffca3;fill-opacity:1;fill-rule:evenodd;stroke:none;stroke-width:1px;stroke-linecap:butt;stroke-linejoin:miter;stroke-opacity:1"
       d="M 434.77288,137.73581 L 444.08471,148.21161 L 448.74063,142.3917 L 453.39656,135.40783 L 453.39656,142.3917 L 452.23257,155.19548 L 455.7245,157.52344 L 460.38042,157.52344 L 462.70838,158.68741 L 462.70838,149.37558 L 469.69227,143.55569 L 474.34817,135.40783 L 475.51215,128.42395 L 476.67613,114.4562 L 487.15194,113.29224 L 494.13583,109.8003 L 488.31592,105.14439 L 476.67613,106.30836 L 467.36428,113.29224 L 460.38042,119.11212 L 449.90461,119.11212 L 445.24871,122.60406 L 434.77288,137.73581 z"
       id="path2532" />
    <path
       style="fill:#fffca3;fill-opacity:1;fill-rule:evenodd;stroke:none;stroke-width:1px;stroke-linecap:butt;stroke-linejoin:miter;stroke-opacity:1"
       d="M 495.29979,192.44281 L 505.77561,177.31108 L 522.07132,154.03151 L 527.89121,148.21161 L 531.38315,136.57181 L 525.56325,135.40783 L 516.25141,145.88365 L 513.92346,154.03151 L 496.46378,170.32722 L 491.80786,177.31108 L 495.29979,192.44281 z"
       id="path2534" />
    <path
       style="fill:#fffca3;fill-opacity:1;fill-rule:evenodd;stroke:none;stroke-width:1px;stroke-linecap:butt;stroke-linejoin:miter;stroke-opacity:1"
       d="M 449.90461,259.95361 L 466.20032,247.14982 L 476.67613,235.51004 L 487.15194,227.36219 L 496.46378,214.55841 L 510.43154,197.09874 L 517.4154,188.95088 L 525.56325,183.13098 L 533.71111,174.98312 L 531.38315,169.16323 L 525.56325,164.50732 L 517.4154,171.49119 L 505.77561,187.78689 L 497.62775,194.77078 L 490.64388,205.24659 L 484.82399,214.55841 L 469.69227,228.52616 L 462.70838,237.83799 L 454.56053,245.98585 L 449.90461,259.95361 z"
       id="path2536" />
    <path
       style="fill:#fffca3;fill-opacity:1;fill-rule:evenodd;stroke:none;stroke-width:1px;stroke-linecap:butt;stroke-linejoin:miter;stroke-opacity:1"
       d="M 394.03361,127.25998 L 402.18146,123.76806 L 397.52555,117.94814 L 387.04974,110.96427 L 383.5578,114.4562 L 394.03361,127.25998 z"
       id="path2538" />
    <path
       style="fill:#fffca3;fill-opacity:1;fill-rule:evenodd;stroke:none;stroke-width:1px;stroke-linecap:butt;stroke-linejoin:miter;stroke-opacity:1"
       d="M 357.95027,184.29495 L 361.4422,188.95088 L 362.60617,216.88637 L 362.60617,235.51004 L 363.77017,264.60952 L 366.09812,276.24932 L 362.60617,282.06919 L 356.78628,266.93748 L 350.96638,247.14982 L 349.80242,222.70627 L 348.63842,206.41056 L 350.96638,190.11485 L 357.95027,184.29495 z"
       id="path2540" />
    <path
       style="fill:#fffca3;fill-opacity:1;fill-rule:evenodd;stroke:none;stroke-width:1px;stroke-linecap:butt;stroke-linejoin:miter;stroke-opacity:1"
       d="M 360.27823,129.58795 L 364.93413,137.73581 L 368.42607,133.07987 L 368.42607,115.6202 L 366.09812,109.8003 L 359.11424,116.78416 L 360.27823,129.58795 z"
       id="path2542" />
    <path
       style="fill:#fffca3;fill-opacity:1;fill-rule:evenodd;stroke:none;stroke-width:1px;stroke-linecap:butt;stroke-linejoin:miter;stroke-opacity:1"
       d="M 336.99863,243.6579 L 335.83467,218.05035 L 338.16261,204.0826 L 342.81853,172.65517 L 347.47446,147.04762 L 342.81853,138.89977 L 338.16261,141.22773 L 326.52282,171.49119 L 317.211,150.53956 L 318.37496,136.57181 L 314.88304,119.11212 L 310.22711,87.684692 L 300.91529,86.520705 L 299.75131,93.504589 L 298.58733,131.9159 L 289.27549,115.6202 L 288.11151,122.60406 L 288.11151,130.75191 L 291.60345,148.21161 L 281.12765,147.04762 L 290.43948,159.85139 L 299.75131,179.63903 L 307.89916,193.60678 L 321.86691,218.05035 L 328.85078,234.34606 L 336.99863,243.6579 z"
       id="path2544" />
    <path
       style="fill:#fffca3;fill-opacity:1;fill-rule:evenodd;stroke:none;stroke-width:1px;stroke-linecap:butt;stroke-linejoin:miter;stroke-opacity:1"
       d="M 248.53624,102.81641 L 268.32387,124.93202 L 277.6357,151.70353 L 293.93141,183.13098 L 299.75131,192.44281 L 292.76744,199.42669 L 270.65183,172.65517 L 261.33999,150.53956 L 253.19214,138.89977 L 252.02816,117.94814 L 248.53624,102.81641 z"
       id="path2546" />
    <path
       style="fill:#fffca3;fill-opacity:1;fill-rule:evenodd;stroke:none;stroke-width:1px;stroke-linecap:butt;stroke-linejoin:miter;stroke-opacity:1"
       d="M 207.79696,147.04762 L 214.78082,138.89977 L 234.56849,150.53956 L 242.71632,164.50732 L 254.35613,184.29495 L 269.48785,206.41056 L 265.99591,212.23045 L 238.06042,188.95088 L 229.91257,177.31108 L 218.27278,161.01537 L 207.79696,147.04762 z"
       id="path2548" />
    <path
       style="fill:#fffca3;fill-opacity:1;fill-rule:evenodd;stroke:none;stroke-width:1px;stroke-linecap:butt;stroke-linejoin:miter;stroke-opacity:1"
       d="M 219.43674,236.67402 L 221.76471,248.31381 L 255.52009,271.59339 L 269.48785,282.06919 L 289.27549,292.54503 L 313.71907,307.67674 L 319.53896,312.33266 L 325.35886,311.16868 L 320.70292,301.85685 L 298.58733,285.56114 L 275.30774,264.60952 L 254.35613,249.47778 L 234.56849,236.67402 L 219.43674,236.67402 z"
       id="path2550" />
    <path
       style="fill:#fffca3;fill-opacity:1;fill-rule:evenodd;stroke:none;stroke-width:1px;stroke-linecap:butt;stroke-linejoin:miter;stroke-opacity:1"
       d="M 120.49853,225.03423 L 141.45014,237.83799 L 146.10606,234.34606 L 143.7781,219.21434 L 148.43403,218.05035 L 158.90984,222.70627 L 164.72974,233.18208 L 171.7136,242.49391 L 185.68136,252.96973 L 200.81307,265.77348 L 219.43674,284.39716 L 211.28888,289.05307 L 198.48512,290.21706 L 205.469,294.87298 L 222.92868,291.38103 L 231.07653,294.87298 L 249.7002,304.18481 L 239.22439,310.0047 L 205.469,298.3649 L 183.3534,304.18481 L 163.56574,308.84072 L 120.49853,305.34878 L 100.71087,307.67674 L 103.03883,294.87298 L 101.87486,278.57727 L 105.36678,264.60952 L 114.67863,259.95361 L 120.49853,254.1337 L 118.17057,245.98585 L 120.49853,240.16595 L 120.49853,225.03423 z"
       id="path2552" />
    <path
       style="fill:#fffca3;fill-opacity:1;fill-rule:evenodd;stroke:none;stroke-width:1px;stroke-linecap:butt;stroke-linejoin:miter;stroke-opacity:1"
       d="M 332.34271,349.57999 L 321.86691,354.23591 L 283.4556,357.72783 L 236.89643,360.05581 L 204.30502,357.72783 L 176.36952,357.72783 L 176.36952,350.74397 L 185.68136,348.41602 L 220.60073,346.08806 L 235.73245,348.41602 L 245.04428,347.25202 L 260.17601,349.57999 L 271.8158,348.41602 L 291.60345,348.41602 L 310.22711,348.41602 L 325.35886,347.25202 L 332.34271,349.57999 z"
       id="path2554" />
    <path
       style="fill:#fffca3;fill-opacity:1;fill-rule:evenodd;stroke:none;stroke-width:1px;stroke-linecap:butt;stroke-linejoin:miter;stroke-opacity:1"
       d="M 318.37496,398.4671 L 292.76744,420.5827 L 274.14378,438.0424 L 262.50398,448.5182 L 250.86418,460.158 L 232.24053,476.45371 L 246.20828,449.6822 L 254.35613,438.0424 L 267.15989,431.05852 L 282.29163,420.5827 L 309.06315,399.63109 L 318.37496,398.4671 z"
       id="path2556" />
    <path
       style="fill:#fffca3;fill-opacity:1;fill-rule:evenodd;stroke:none;stroke-width:1px;stroke-linecap:butt;stroke-linejoin:miter;stroke-opacity:1"
       d="M 307.89916,375.18753 L 264.83194,389.15528 L 227.58459,406.61495 L 210.12492,420.5827 L 194.99317,415.9268 L 196.15716,408.94293 L 214.78082,396.13915 L 212.45287,392.64722 L 201.97707,393.81119 L 181.02544,400.79507 L 164.72974,398.4671 L 120.49853,392.64722 L 122.82649,383.33538 L 130.97434,377.51548 L 140.28617,372.85957 L 194.99317,375.18753 L 227.58459,372.85957 L 247.37224,371.69558 L 281.12765,371.69558 L 295.0954,370.53161 L 307.89916,375.18753 z"
       id="path2558" />
    <path
       style="fill:#fffca3;fill-opacity:1;fill-rule:evenodd;stroke:none;stroke-width:1px;stroke-linecap:butt;stroke-linejoin:miter;stroke-opacity:1"
       d="M 245.04428,435.71445 L 232.24053,450.84616 L 222.92868,468.30586 L 215.94482,482.27361 L 205.469,496.24135 L 197.32115,495.07737 L 205.469,478.78166 L 212.45287,467.14187 L 226.42063,439.20637 L 221.76471,432.22249 L 213.61686,436.87841 L 178.69748,450.84616 L 167.05769,452.01015 L 170.54962,442.69831 L 190.33727,434.55045 L 214.78082,426.4026 L 249.7002,412.43485 L 281.12765,399.63109 L 293.93141,389.15528 L 297.42336,390.31924 L 288.11151,399.63109 L 261.33999,418.25474 L 252.02816,424.07464 L 245.04428,435.71445 z"
       id="path2560" />
  </g>
</svg>
